<svg width="180" height="180" viewBox="0 0 64 64" fill="none" xmlns="http://www.w3.org/2000/svg">
  <rect width="64" height="64" rx="14" fill="#FEF2F2"/>
  <g fill="#C04A3E">
    <path d="M36 28C36 16 48 8 58 14C64 18 64 28 58 34C52 38 44 36 38 32L36 28Z"/>
    <path d="M36 28C36 16 48 8 58 14C64 18 64 28 58 34C52 38 44 36 38 32L36 28Z" transform="rotate(90 32 32)"/>
    <path d="M36 28C36 16 48 8 58 14C64 18 64 28 58 34C52 38 44 36 38 32L36 28Z" transform="rotate(180 32 32)"/>
    <path d="M36 28C36 16 48 8 58 14C64 18 64 28 58 34C52 38 44 36 38 32L36 28Z" transform="rotate(270 32 32)"/>
  </g>
</svg>
